<?xml version="1.0" encoding="UTF-8" standalone="no"?>
<svg
   xmlns:dc="http://purl.org/dc/elements/1.1/"
   xmlns:cc="http://creativecommons.org/ns#"
   xmlns:rdf="http://www.w3.org/1999/02/22-rdf-syntax-ns#"
   xmlns:svg="http://www.w3.org/2000/svg"
   xmlns="http://www.w3.org/2000/svg"
   xmlns:sodipodi="http://sodipodi.sourceforge.net/DTD/sodipodi-0.dtd"
   xmlns:inkscape="http://www.inkscape.org/namespaces/inkscape"
   width="563.07001mm"
   height="409.1228mm"
   viewBox="0 0 563.07001 409.1228"
   version="1.1"
   id="svg8"
   inkscape:version="1.0.2-2 (e86c870879, 2021-01-15)"
   sodipodi:docname="screensize.svg">
  <defs
     id="defs2">
    <inkscape:path-effect
       effect="bspline"
       id="path-effect1308"
       is_visible="true"
       lpeversion="1"
       weight="33.333333"
       steps="2"
       helper_size="0"
       apply_no_weight="true"
       apply_with_weight="true"
       only_selected="false" />
    <inkscape:path-effect
       effect="bspline"
       id="path-effect1285"
       is_visible="true"
       lpeversion="1"
       weight="33.333333"
       steps="2"
       helper_size="0"
       apply_no_weight="true"
       apply_with_weight="true"
       only_selected="false" />
    <inkscape:path-effect
       effect="bspline"
       id="path-effect1281"
       is_visible="true"
       lpeversion="1"
       weight="33.333333"
       steps="2"
       helper_size="0"
       apply_no_weight="true"
       apply_with_weight="true"
       only_selected="false" />
    <inkscape:path-effect
       effect="bspline"
       id="path-effect1251"
       is_visible="true"
       lpeversion="1"
       weight="33.333333"
       steps="2"
       helper_size="0"
       apply_no_weight="true"
       apply_with_weight="true"
       only_selected="false" />
    <inkscape:path-effect
       effect="bspline"
       id="path-effect1247"
       is_visible="true"
       lpeversion="1"
       weight="33.333333"
       steps="2"
       helper_size="0"
       apply_no_weight="true"
       apply_with_weight="true"
       only_selected="false" />
    <inkscape:path-effect
       effect="bspline"
       id="path-effect1243"
       is_visible="true"
       lpeversion="1"
       weight="33.333333"
       steps="2"
       helper_size="0"
       apply_no_weight="true"
       apply_with_weight="true"
       only_selected="false" />
    <inkscape:path-effect
       effect="bspline"
       id="path-effect1239"
       is_visible="true"
       lpeversion="1"
       weight="33.333333"
       steps="2"
       helper_size="0"
       apply_no_weight="true"
       apply_with_weight="true"
       only_selected="false" />
    <inkscape:path-effect
       effect="bspline"
       id="path-effect1235"
       is_visible="true"
       lpeversion="1"
       weight="33.333333"
       steps="2"
       helper_size="0"
       apply_no_weight="true"
       apply_with_weight="true"
       only_selected="false" />
    <inkscape:path-effect
       effect="bspline"
       id="path-effect1207"
       is_visible="true"
       lpeversion="1"
       weight="33.333333"
       steps="2"
       helper_size="0"
       apply_no_weight="true"
       apply_with_weight="true"
       only_selected="false" />
    <inkscape:path-effect
       effect="bspline"
       id="path-effect1203"
       is_visible="true"
       lpeversion="1"
       weight="33.333333"
       steps="2"
       helper_size="0"
       apply_no_weight="true"
       apply_with_weight="true"
       only_selected="false" />
    <inkscape:path-effect
       effect="bspline"
       id="path-effect1199"
       is_visible="true"
       lpeversion="1"
       weight="33.333333"
       steps="2"
       helper_size="0"
       apply_no_weight="true"
       apply_with_weight="true"
       only_selected="false" />
    <inkscape:path-effect
       effect="bspline"
       id="path-effect1195"
       is_visible="true"
       lpeversion="1"
       weight="33.333333"
       steps="2"
       helper_size="0"
       apply_no_weight="true"
       apply_with_weight="true"
       only_selected="false" />
    <inkscape:path-effect
       effect="bspline"
       id="path-effect1191"
       is_visible="true"
       lpeversion="1"
       weight="33.333333"
       steps="2"
       helper_size="0"
       apply_no_weight="true"
       apply_with_weight="true"
       only_selected="false" />
    <inkscape:path-effect
       effect="bspline"
       id="path-effect1163"
       is_visible="true"
       lpeversion="1"
       weight="33.333333"
       steps="2"
       helper_size="0"
       apply_no_weight="true"
       apply_with_weight="true"
       only_selected="false" />
    <inkscape:path-effect
       effect="bspline"
       id="path-effect1159"
       is_visible="true"
       lpeversion="1"
       weight="33.333333"
       steps="2"
       helper_size="0"
       apply_no_weight="true"
       apply_with_weight="true"
       only_selected="false" />
    <inkscape:path-effect
       effect="bspline"
       id="path-effect1155"
       is_visible="true"
       lpeversion="1"
       weight="33.333333"
       steps="2"
       helper_size="0"
       apply_no_weight="true"
       apply_with_weight="true"
       only_selected="false" />
    <inkscape:path-effect
       effect="bspline"
       id="path-effect1151"
       is_visible="true"
       lpeversion="1"
       weight="33.333333"
       steps="2"
       helper_size="0"
       apply_no_weight="true"
       apply_with_weight="true"
       only_selected="false" />
    <inkscape:path-effect
       effect="bspline"
       id="path-effect1145"
       is_visible="true"
       lpeversion="1"
       weight="33.333333"
       steps="2"
       helper_size="0"
       apply_no_weight="true"
       apply_with_weight="true"
       only_selected="false" />
    <inkscape:path-effect
       effect="bspline"
       id="path-effect1117"
       is_visible="true"
       lpeversion="1"
       weight="33.333333"
       steps="2"
       helper_size="0"
       apply_no_weight="true"
       apply_with_weight="true"
       only_selected="false" />
    <inkscape:path-effect
       effect="bspline"
       id="path-effect1113"
       is_visible="true"
       lpeversion="1"
       weight="33.333333"
       steps="2"
       helper_size="0"
       apply_no_weight="true"
       apply_with_weight="true"
       only_selected="false" />
    <inkscape:path-effect
       effect="bspline"
       id="path-effect1107"
       is_visible="true"
       lpeversion="1"
       weight="33.333333"
       steps="2"
       helper_size="0"
       apply_no_weight="true"
       apply_with_weight="true"
       only_selected="false" />
    <inkscape:path-effect
       effect="bspline"
       id="path-effect1099"
       is_visible="true"
       lpeversion="1"
       weight="33.333333"
       steps="2"
       helper_size="0"
       apply_no_weight="true"
       apply_with_weight="true"
       only_selected="false" />
    <inkscape:path-effect
       effect="bspline"
       id="path-effect1093"
       is_visible="true"
       lpeversion="1"
       weight="33.333333"
       steps="2"
       helper_size="0"
       apply_no_weight="true"
       apply_with_weight="true"
       only_selected="false" />
    <inkscape:path-effect
       effect="bspline"
       id="path-effect1089"
       is_visible="true"
       lpeversion="1"
       weight="33.333333"
       steps="2"
       helper_size="0"
       apply_no_weight="true"
       apply_with_weight="true"
       only_selected="false" />
    <inkscape:path-effect
       effect="bspline"
       id="path-effect1085"
       is_visible="true"
       lpeversion="1"
       weight="33.333333"
       steps="2"
       helper_size="0"
       apply_no_weight="true"
       apply_with_weight="true"
       only_selected="false" />
    <inkscape:path-effect
       effect="bspline"
       id="path-effect1081"
       is_visible="true"
       lpeversion="1"
       weight="33.333333"
       steps="2"
       helper_size="0"
       apply_no_weight="true"
       apply_with_weight="true"
       only_selected="false" />
    <inkscape:path-effect
       effect="bspline"
       id="path-effect1070"
       is_visible="true"
       lpeversion="1"
       weight="33.333333"
       steps="2"
       helper_size="0"
       apply_no_weight="true"
       apply_with_weight="true"
       only_selected="false" />
    <inkscape:path-effect
       effect="bspline"
       id="path-effect1047"
       is_visible="true"
       lpeversion="1"
       weight="33.333333"
       steps="2"
       helper_size="0"
       apply_no_weight="true"
       apply_with_weight="true"
       only_selected="false" />
    <inkscape:path-effect
       effect="bspline"
       id="path-effect1041"
       is_visible="true"
       lpeversion="1"
       weight="33.333333"
       steps="2"
       helper_size="0"
       apply_no_weight="true"
       apply_with_weight="true"
       only_selected="false" />
    <inkscape:path-effect
       effect="bspline"
       id="path-effect1037"
       is_visible="true"
       lpeversion="1"
       weight="33.333333"
       steps="2"
       helper_size="0"
       apply_no_weight="true"
       apply_with_weight="true"
       only_selected="false" />
    <inkscape:path-effect
       effect="bspline"
       id="path-effect1033"
       is_visible="true"
       lpeversion="1"
       weight="33.333333"
       steps="2"
       helper_size="0"
       apply_no_weight="true"
       apply_with_weight="true"
       only_selected="false" />
  </defs>
  <sodipodi:namedview
     id="base"
     pagecolor="#ffffff"
     bordercolor="#666666"
     borderopacity="1.0"
     inkscape:pageopacity="0.0"
     inkscape:pageshadow="2"
     inkscape:zoom="0.34074713"
     inkscape:cx="1154.7069"
     inkscape:cy="842.35538"
     inkscape:document-units="mm"
     inkscape:current-layer="layer1"
     inkscape:document-rotation="0"
     showgrid="false"
     fit-margin-top="0"
     fit-margin-left="0"
     fit-margin-right="0"
     fit-margin-bottom="0"
     inkscape:window-width="1920"
     inkscape:window-height="1017"
     inkscape:window-x="-8"
     inkscape:window-y="-8"
     inkscape:window-maximized="1" />
  <metadata
     id="metadata5">
    <rdf:RDF>
      <cc:Work
         rdf:about="">
        <dc:format>image/svg+xml</dc:format>
        <dc:type
           rdf:resource="http://purl.org/dc/dcmitype/StillImage" />
        <dc:title></dc:title>
      </cc:Work>
    </rdf:RDF>
  </metadata>
  <g
     inkscape:label="Layer 1"
     inkscape:groupmode="layer"
     id="layer1"
     transform="translate(52.476237,76.319197)">
    <g
       id="g960"
       transform="matrix(0.26458333,0,0,0.26458333,92.488539,75.795526)">
      <path
         style="fill:#8ea5a4"
         d="m 496,476.8 c 0,10.4 -8.8,19.2 -19.2,19.2 H 19.2 C 8.8,496 0,487.2 0,476.8 V 19.2 C 0,8.8 8.8,0 19.2,0 H 476.8 C 487.2,0 496,8.8 496,19.2 Z"
         id="path833" />
      <path
         style="fill:#fdffff"
         d="M 16,80 V 461.6 C 16,472 23.2,480 32.8,480 h 430.4 c 9.6,0 16.8,-8 16.8,-18.4 V 80 Z"
         id="path835" />
      <path
         style="fill:#e8efef"
         d="m 463.2,480 c 9.6,0 16.8,-8.8 16.8,-18.4 V 80 H 16"
         id="path837" />
      <rect
         x="16"
         y="80"
         style="fill:#dce5e5"
         width="464"
         height="24"
         id="rect839" />
      <path
         style="fill:#fdffff"
         d="m 395.2,40 c 0,9.6 -8,16 -17.6,16 H 32 c -9.6,0 -8,-6.4 -8,-16 v 0 c 0,-9.6 -1.6,-16 8,-16 h 345.6 c 9.6,0 17.6,6.4 17.6,16 z"
         id="path841" />
      <path
         style="fill:#e6efef"
         d="m 24,40.8 v 0 C 24,31.2 22.4,24 32,24 h 345.6 c 9.6,0 17.6,7.2 17.6,16.8 v 0"
         id="path843" />
      <circle
         style="opacity:0.4;fill:#b1bcbc;enable-background:new"
         cx="426.39999"
         cy="41.599998"
         r="8.8000002"
         id="circle845" />
      <circle
         style="fill:#ffffff"
         cx="426.39999"
         cy="37.599998"
         r="8.8000002"
         id="circle847" />
      <path
         style="fill:#e8efee"
         d="m 420,31.2 c 3.2,-3.2 9.6,-3.2 12.8,0 3.2,3.2 3.2,9.6 0,12.8"
         id="path849" />
      <circle
         style="opacity:0.4;fill:#b1bcbc;enable-background:new"
         cx="462.39999"
         cy="41.599998"
         r="8.8000002"
         id="circle851" />
      <circle
         style="fill:#ffffff"
         cx="462.39999"
         cy="37.599998"
         r="8.8000002"
         id="circle853" />
      <path
         style="fill:#e8efee"
         d="m 456,31.2 c 3.2,-3.2 9.6,-3.2 12.8,0 3.2,3.2 3.2,9.6 0,12.8"
         id="path855" />
      <path
         style="fill:#8ea5a4"
         d="M 100.8,32 100,31.2 h -2.4 c -0.8,0 -0.8,0 -0.8,0.8 l -1.6,6.4 v 0 0 L 92.8,32 C 92,32 92,32 91.2,32 H 88.8 C 88,32 88,32 88,32.8 L 85.6,40 v 0 0 L 84,33.6 C 84,32 84,32 83.2,32 H 80.8 80 79.2 76.8 C 76,32 76,32 76,32.8 l -1.6,6.4 v 0 0 L 72,32.8 C 72,32 71.2,32 70.4,32 H 68.8 C 68,32 68,32 67.2,32.8 l -1.6,6.4 v 0 0 L 63.2,32.8 C 63.2,32 63.2,32 62.4,32 H 60 59.2 c 0,0 0,0 -0.8,0 H 56 c 0,0 -0.8,0 -0.8,0.8 l -1.6,6.4 v 0 0 L 51.2,32.8 C 51.2,32 50.4,32 49.6,32 H 48 c -0.8,0 -0.8,0 -0.8,0.8 l -2.4,6.4 v 0 0 L 43.2,32.8 C 42.4,32 42.4,32 41.6,32 h -2.4 c 0,0 -0.8,0 -0.8,0.8 v 0.8 l 4,13.6 c 0,0.8 0.8,0.8 0.8,0.8 h 2.4 c 0.8,0 0.8,0 0.8,-0.8 L 48.8,40 c 0,0 0,0 0,-0.8 0,0 0,0 0,0.8 l 2.4,6.4 c 0,0.8 0.8,0.8 0.8,0.8 h 2.4 c 0.8,0 0.8,0 0.8,-0.8 l 4,-12 3.2,12 c 0,0.8 0.8,0.8 0.8,0.8 h 2.4 c 0.8,0 0.8,0 0.8,-0.8 L 69.6,40 c 0,0 0,0 0,-0.8 0,0 0,0 0,0.8 l 2.4,6.4 c 0,0.8 0.8,0.8 0.8,0.8 h 2.4 c 0.8,0 0.8,0 0.8,-0.8 l 4,-12 3.2,12 c 0,0.8 0.8,0.8 0.8,0.8 h 2.4 c 0.8,0 0.8,0 0.8,-0.8 L 90.4,40 c 0,0 0,0 0,-0.8 0,0 0,0 0,0.8 l 2.4,6.4 c 0,0.8 0.8,0.8 0.8,0.8 H 96 c 0.8,0 0.8,0 0.8,-0.8 l 4,-13.6 c 0.8,0 0.8,-0.8 0,-0.8 z"
         id="path857" />
      <g
         id="g867">
	<path
   style="fill:#dce5e5"
   d="m 242.4,238.4 c -0.8,0 -0.8,0 -1.6,0 -1.6,0 -2.4,0.8 -4,0.8 -0.8,0 -0.8,0 -1.6,0.8 -1.6,0 -2.4,0.8 -4,1.6 -0.8,0 -0.8,0 -1.6,0.8 -1.6,0.8 -3.2,1.6 -4.8,2.4 0,0 0,0 -0.8,0 -3.2,1.6 -6.4,4 -9.6,6.4 v 0 c -1.6,1.6 -2.4,2.4 -4,4 v 0 c -8,8.8 -12.8,20.8 -12.8,33.6 0,28 22.4,50.4 50.4,50.4 12.8,0 24.8,-4.8 33.6,-12.8 v 0 0 c 1.6,-0.8 2.4,-2.4 3.2,-3.2 v 0 c 0.8,-1.6 2.4,-2.4 3.2,-4 v 0 c 0.8,-1.6 1.6,-2.4 2.4,-4 v -0.8 c 0.8,-1.6 1.6,-2.4 1.6,-4 0,0 0,-0.8 0.8,-0.8 0.8,-1.6 0.8,-2.4 1.6,-4 0,0 0,-0.8 0.8,-0.8 0,-1.6 0.8,-2.4 0.8,-4 0,-0.8 0,-0.8 0,-1.6 0,-1.6 0.8,-2.4 0.8,-4 0,-0.8 0,-0.8 0,-1.6 0,-1.6 0,-3.2 0,-5.6 0,-28 -22.4,-50.4 -50.4,-50.4 0,0.8 -2.4,0.8 -4,0.8 z"
   id="path859" />

	<path
   style="fill:#dce5e5"
   d="m 166.4,279.2 c 1.6,-15.2 8,-29.6 16.8,-40.8 v 0 c 1.6,-2.4 4,-4 5.6,-6.4 0.8,-0.8 0.8,-0.8 1.6,-1.6 1.6,-1.6 3.2,-3.2 4.8,-4 0.8,-0.8 1.6,-0.8 2.4,-1.6 1.6,-1.6 3.2,-2.4 4.8,-4 0.8,-0.8 1.6,-0.8 1.6,-1.6 4.8,-3.2 9.6,-5.6 15.2,-7.2 0.8,0 1.6,-0.8 2.4,-0.8 1.6,-0.8 4,-1.6 5.6,-1.6 0.8,0 1.6,-0.8 3.2,-0.8 1.6,-0.8 4,-0.8 6.4,-0.8 0.8,0 1.6,0 3.2,0 3.2,0 8.8,-0.8 8.8,-0.8 v 0.8 h 100.8 c -24,-32 -60,-48.8 -100.8,-48.8 -4.8,0 -8.8,0 -13.6,0 -0.8,0 -2.4,0 -3.2,0 -4,0.8 -8.8,0.8 -12.8,2.4 v 0 c -4,0.8 -8.8,2.4 -12.8,4 -0.8,0 -1.6,0.8 -2.4,0.8 -4,1.6 -8,3.2 -12,4.8 v 0 c -4,1.6 -8,4 -11.2,6.4 -0.8,0 -1.6,0.8 -1.6,0.8 -7.2,4.8 -14.4,10.4 -20.8,16 0,0 -0.8,1.6 -0.8,2.4 -3.2,3.2 -6.4,2.4 -8.8,10.4 h -3.2 v -0.8 c -8,10.4 -13.6,20.8 -18.4,33.6 z"
   id="path861" />

	<path
   style="fill:#dce5e5"
   d="m 363.2,350.4 c 1.6,-4 4,-7.2 5.6,-11.2 0,-0.8 0,-0.8 0.8,-1.6 1.6,-3.2 2.4,-7.2 4,-10.4 0,-0.8 0.8,-2.4 0.8,-3.2 0.8,-3.2 1.6,-6.4 2.4,-9.6 0.8,-1.6 0.8,-4 0.8,-6.4 0,-2.4 0.8,-4.8 0.8,-6.4 0.8,-4 0.8,-8 0.8,-12 0,-18.4 -4,-33.6 -10.4,-49.6 h -55.2 c 11.2,16 17.6,30.4 17.6,49.6 0,3.2 0,5.6 -0.8,8 0,1.6 -0.8,3.2 -0.8,4.8 0,1.6 0,2.4 -0.8,3.2 -0.8,2.4 -0.8,4 -1.6,6.4 0,0.8 0,0.8 -0.8,1.6 -0.8,2.4 -1.6,4.8 -2.4,7.2 0,0 0,0 0,0.8 -4,10.4 -10.4,19.2 -18.4,26.4 v 0 0 l -70.4,70.4 c 4,0.8 8.8,0.8 13.6,0.8 48.8,0.8 92.8,-28 114.4,-68.8 z"
   id="path863" />

	<path
   style="fill:#dce5e5"
   d="m 190.4,348 v 0 0 c -0.8,-0.8 -0.8,-0.8 -0.8,-0.8 L 118.4,276 c -0.8,4 -0.8,8.8 -0.8,12.8 0,54.4 33.6,101.6 81.6,120.8 l 39.2,-39.2 C 219.2,368.8 203.2,360 190.4,348 Z"
   id="path865" />

</g>
      <circle
         style="fill:#82cc00"
         cx="248"
         cy="280"
         r="50.400002"
         id="circle869" />
      <path
         style="fill:#5dba02"
         d="m 248,229.6 c -16.8,0 -32,8 -40.8,20.8 l 75.2,67.2 C 292.8,308 299.2,295.2 299.2,280 298.4,252 276,229.6 248,229.6 Z"
         id="path871" />
      <path
         style="fill:#82cc00"
         d="m 166.4,269.6 c 4.8,-40.8 41.6,-72 81.6,-72.8 v 3.2 h 100.8 c -24,-32 -60,-49.6 -100.8,-49.6 -54.4,0 -101.6,32.8 -120.8,80.8 z"
         id="path873" />
      <path
         style="fill:#5dba02"
         d="m 248,150.4 c -40.8,0 -76.8,17.6 -100.8,47.2 l 36,32 c 15.2,-19.2 40.8,-32 64.8,-32 v 2.4 h 100.8 c -24,-32 -60,-49.6 -100.8,-49.6 z"
         id="path875" />
      <path
         style="fill:#82cc00"
         d="m 312.8,232 c 11.2,8 17.6,30.4 17.6,49.6 0,23.2 -9.6,44 -25.6,58.4 l -70.4,70.4 c 4,0.8 8.8,0.8 13.6,0.8 72,0 130.4,-57.6 130.4,-129.6 0,-18.4 -4,-33.6 -10.4,-49.6 z"
         id="path877" />
      <path
         style="fill:#5dba02"
         d="m 312.8,232 c 11.2,8 17.6,30.4 17.6,49.6 0,23.2 -9.6,43.2 -24.8,58.4 l 36,32 c 23.2,-23.2 37.6,-54.4 37.6,-89.6 0,-18.4 -4,-33.6 -10.4,-49.6 h -56 z"
         id="path879" />
      <path
         style="fill:#82cc00"
         d="m 198.4,400.8 39.2,-39.2 c -18.4,-2.4 -35.2,-10.4 -47.2,-23.2 v 0 0 c 0,0 0,0 -0.8,-0.8 l -71.2,-71.2 c -0.8,4 -0.8,8.8 -0.8,12.8 0,55.2 33.6,102.4 80.8,121.6 z"
         id="path881" />
      <g
         id="g883">
</g>
      <g
         id="g885">
</g>
      <g
         id="g887">
</g>
      <g
         id="g889">
</g>
      <g
         id="g891">
</g>
      <g
         id="g893">
</g>
      <g
         id="g895">
</g>
      <g
         id="g897">
</g>
      <g
         id="g899">
</g>
      <g
         id="g901">
</g>
      <g
         id="g903">
</g>
      <g
         id="g905">
</g>
      <g
         id="g907">
</g>
      <g
         id="g909">
</g>
      <g
         id="g911">
</g>
    </g>
    <g
       id="g1029"
       transform="matrix(8.4666664,0,0,8.4666664,-52.476237,-37.72311)">
      <g
         id="g970">
	<g
   id="g968">
		<path
   style="fill:#010002"
   d="M 45.344,6.601 H 5.018 C 2.251,6.601 0,8.835 0,11.581 v 23.222 c 0,2.745 2.251,4.979 5.018,4.979 l 9.709,0.957 c -0.556,0.15 -0.961,0.751 -0.961,1.493 0,0.858 0.542,1.531 1.233,1.531 h 20.367 c 0.691,0 1.233,-0.673 1.233,-1.531 0,-0.73 -0.395,-1.323 -0.938,-1.484 l 9.683,-0.966 c 2.768,0 5.02,-2.234 5.02,-4.979 V 11.581 c 0,-2.746 -2.252,-4.98 -5.02,-4.98 z M 35.366,42.764 H 14.999 c -0.058,0 -0.233,-0.188 -0.233,-0.531 0,-0.343 0.175,-0.531 0.233,-0.531 h 20.367 c 0.058,0 0.233,0.188 0.233,0.531 0,0.343 -0.176,0.531 -0.233,0.531 z m 12.92,-7.961 c 0,1.601 -1.319,2.902 -2.941,2.902 H 5.018 c -1.622,0 -2.941,-1.303 -2.941,-2.902 V 11.581 c 0,-1.601 1.319,-2.903 2.941,-2.903 h 40.326 c 1.622,0 2.941,1.303 2.941,2.903 z"
   id="path962" />

		<path
   style="fill:#010002"
   d="M 45.041,10.773 H 5.323 c -0.297,0 -0.537,0.24 -0.537,0.537 v 19.752 c 0,0.297 0.24,0.539 0.537,0.539 h 39.718 c 0.297,0 0.537,-0.242 0.539,-0.539 V 11.31 c 0,-0.297 -0.241,-0.537 -0.539,-0.537 z m -0.536,18.752 c 0,0.554 -0.447,1 -1,1 H 6.86 c -0.553,0 -1,-0.446 -1,-0.998 V 12.848 c 0,-0.553 0.447,-1 1,-1 h 36.645 c 0.553,0 1,0.447 1,1 z"
   id="path964" />

		<path
   style="fill:#010002"
   d="m 25.182,33.357 c -0.915,0 -1.658,0.744 -1.658,1.658 0,0.914 0.744,1.657 1.658,1.657 0.914,0 1.658,-0.743 1.658,-1.657 0,-0.914 -0.744,-1.658 -1.658,-1.658 z m 0,2.566 c -0.501,0 -0.908,-0.407 -0.908,-0.907 0,-0.501 0.407,-0.908 0.908,-0.908 0.501,0 0.908,0.407 0.908,0.908 0,0.5 -0.407,0.907 -0.908,0.907 z"
   id="path966" />

	</g>

</g>
      <g
         id="g972">
</g>
      <g
         id="g974">
</g>
      <g
         id="g976">
</g>
      <g
         id="g978">
</g>
      <g
         id="g980">
</g>
      <g
         id="g982">
</g>
      <g
         id="g984">
</g>
      <g
         id="g986">
</g>
      <g
         id="g988">
</g>
      <g
         id="g990">
</g>
      <g
         id="g992">
</g>
      <g
         id="g994">
</g>
      <g
         id="g996">
</g>
      <g
         id="g998">
</g>
      <g
         id="g1000">
</g>
    </g>
    <path
       style="fill:#000000;stroke:#3e4ca6;stroke-width:1;stroke-miterlimit:4;stroke-dasharray:none;stroke-opacity:1"
       d="m 96.721871,96.962192 c 0,0 0,-103.7088005 0,-103.7088005"
       id="path1031"
       inkscape:path-effect="#path-effect1033"
       inkscape:original-d="M 96.721871,96.962192 V -6.7466085"
       sodipodi:nodetypes="cc" />
    <path
       style="fill:#000000;stroke:#3e4ca6;stroke-width:1;stroke-miterlimit:4;stroke-dasharray:none;stroke-opacity:1"
       d="m 219.48854,96.962192 c 0,0 0,-103.7392488 0,-103.7392488"
       id="path1035"
       inkscape:path-effect="#path-effect1037"
       inkscape:original-d="M 219.48854,96.962192 V -6.7770568"
       sodipodi:nodetypes="cc" />
    <path
       style="fill:#000000;stroke:#3e4ca6;stroke-width:1;stroke-miterlimit:4;stroke-dasharray:none;stroke-opacity:1"
       d="m 89.031487,0 c 0,0 136.629823,0 136.629823,0"
       id="path1039"
       inkscape:path-effect="#path-effect1041"
       inkscape:original-d="M 89.031487,0 H 225.66131"
       sodipodi:nodetypes="cc" />
    <path
       style="fill:#000000;stroke:#3e4ca6;stroke-width:1;stroke-miterlimit:4;stroke-dasharray:none;stroke-opacity:1"
       d="m 90.89669,5.3383001 c 0,0 11.6472,-11.1619 11.6472,-11.1619"
       id="path1045"
       inkscape:path-effect="#path-effect1047"
       inkscape:original-d="m 90.89669,5.3383001 11.6472,-11.1619"
       sodipodi:nodetypes="cc" />
    <path
       style="fill:#000000;stroke:#3e4ca6;stroke-width:1;stroke-miterlimit:4;stroke-dasharray:none;stroke-opacity:1"
       d="m 213.92024,4.95006 c 0,0 11.84132,-10.48248 11.84132,-10.48248"
       id="path1045-8"
       inkscape:path-effect="#path-effect1070"
       inkscape:original-d="M 213.92024,4.95006 225.76156,-5.53242"
       sodipodi:nodetypes="cc" />
    <text
       xml:space="preserve"
       style="font-size:11.2889px;line-height:1.25;font-family:Arial;-inkscape-font-specification:Arial;fill:#3e4ca6;fill-opacity:1;stroke-width:0.264583"
       x="114.33668"
       y="-4.6588807"
       id="text1075"><tspan
         sodipodi:role="line"
         id="tspan1073"
         x="114.33668"
         y="-4.6588807"
         style="font-size:11.2889px;fill:#3e4ca6;fill-opacity:1;stroke-width:0.264583">window.innerWidth </tspan></text>
    <path
       style="fill:#000000;stroke:#3e4ca6;stroke-width:1;stroke-miterlimit:4;stroke-dasharray:none;stroke-opacity:1"
       d="m 219.48854,96.962192 c 0,0 186.48429,0 186.48429,0"
       id="path1079"
       inkscape:path-effect="#path-effect1081"
       inkscape:original-d="M 219.48854,96.962192 H 405.97283"
       sodipodi:nodetypes="cc" />
    <path
       style="fill:#000000;stroke:#3e4ca6;stroke-width:1;stroke-miterlimit:4;stroke-dasharray:none;stroke-opacity:1"
       d="m 215.04354,202.79552 c 0,0 193.80206,0 193.80206,0"
       id="path1083"
       inkscape:path-effect="#path-effect1085"
       inkscape:original-d="M 215.04354,202.79552 H 408.8456"
       sodipodi:nodetypes="cc" />
    <path
       style="fill:#000000;stroke:#3e4ca6;stroke-width:1;stroke-miterlimit:4;stroke-dasharray:none;stroke-opacity:1"
       d="m 399.16245,89.634785 c 0,0 0,120.358965 0,120.358965"
       id="path1087"
       inkscape:path-effect="#path-effect1089"
       inkscape:original-d="M 399.16245,89.634785 V 209.99375"
       sodipodi:nodetypes="cc" />
    <path
       style="fill:#000000;stroke:#3e4ca6;stroke-width:1;stroke-miterlimit:4;stroke-dasharray:none;stroke-opacity:1"
       d="m 392.89889,91.236399 c 0,0 12.03545,12.035441 12.03545,12.035441"
       id="path1091"
       inkscape:path-effect="#path-effect1093"
       inkscape:original-d="m 392.89889,91.236399 12.03545,12.035441" />
    <path
       style="fill:#000000;stroke:#3e4ca6;stroke-width:1;stroke-miterlimit:4;stroke-dasharray:none;stroke-opacity:1"
       d="m 394.45184,197.80828 c 0,0 9.90012,9.90012 9.90012,9.90012"
       id="path1097"
       inkscape:path-effect="#path-effect1099"
       inkscape:original-d="m 394.45184,197.80828 9.90012,9.90012" />
    <text
       xml:space="preserve"
       style="font-size:12.7px;line-height:1.25;font-family:Arial;-inkscape-font-specification:Arial;fill:#3e4ca6;fill-opacity:1;stroke-width:0.264583"
       x="89.996407"
       y="-412.67365"
       id="text1103"
       transform="rotate(90)"><tspan
         sodipodi:role="line"
         id="tspan1101"
         x="89.996407"
         y="-412.67365"
         style="font-size:12.7px;fill:#3e4ca6;fill-opacity:1;stroke-width:0.264583">window.innerHeight</tspan></text>
    <path
       style="fill:none;fill-opacity:1;stroke:#c53900;stroke-width:1;stroke-miterlimit:4;stroke-dasharray:none;stroke-opacity:1"
       d="m 92.401122,86.77164 c 0,0 0,-125.754493 0,-125.754493"
       id="path1105"
       inkscape:path-effect="#path-effect1107"
       inkscape:original-d="M 92.401122,86.77164 V -38.982853"
       sodipodi:nodetypes="cc" />
    <path
       style="fill:none;fill-opacity:1;stroke:#c53900;stroke-width:1;stroke-miterlimit:4;stroke-dasharray:none;stroke-opacity:1"
       d="m 223.73962,86.064258 c 0,0 0,-124.164999 0,-124.164999"
       id="path1111"
       inkscape:path-effect="#path-effect1113"
       inkscape:original-d="M 223.73962,86.064258 V -38.100741"
       sodipodi:nodetypes="cc" />
    <path
       style="fill:none;fill-opacity:1;stroke:#c53900;stroke-width:1;stroke-miterlimit:4;stroke-dasharray:none;stroke-opacity:1"
       d="m 88.324602,-33.77688 c 0,0 139.184038,0 139.184038,0"
       id="path1115"
       inkscape:path-effect="#path-effect1117"
       inkscape:original-d="M 88.324602,-33.77688 H 227.50864" />
    <text
       xml:space="preserve"
       style="font-size:11.2889px;line-height:1.25;font-family:Arial;-inkscape-font-specification:Arial;fill:#c53900;fill-opacity:1;stroke-width:0.264583"
       x="113.77116"
       y="-37.179176"
       id="text1075-0"><tspan
         sodipodi:role="line"
         id="tspan1073-8"
         x="113.77116"
         y="-37.179176"
         style="font-size:11.2889px;fill:#c53900;fill-opacity:1;stroke-width:0.264583">window.outerWidth </tspan></text>
    <path
       style="fill:none;fill-opacity:1;stroke:#c53900;stroke-width:1;stroke-miterlimit:4;stroke-dasharray:none;stroke-opacity:1"
       d="m 226.34392,76.192101 c 0,0 228.61619,0 228.61619,0"
       id="path1143"
       inkscape:path-effect="#path-effect1145"
       inkscape:original-d="M 226.34392,76.192101 H 454.96011"
       sodipodi:nodetypes="cc" />
    <path
       style="fill:none;fill-opacity:1;stroke:#c53900;stroke-width:1;stroke-miterlimit:4;stroke-dasharray:none;stroke-opacity:1"
       d="m 226.53804,206.34956 c 0,0 226.84354,0 226.84354,0"
       id="path1149"
       inkscape:path-effect="#path-effect1151"
       inkscape:original-d="M 226.53804,206.34956 H 453.38158"
       sodipodi:nodetypes="cc" />
    <path
       style="fill:none;fill-opacity:1;stroke:#c53900;stroke-width:1;stroke-miterlimit:4;stroke-dasharray:none;stroke-opacity:1"
       d="m 449.12639,71.102529 c 0,0 0,139.459781 0,139.459781"
       id="path1153"
       inkscape:path-effect="#path-effect1155"
       inkscape:original-d="M 449.12639,71.102529 V 210.56231"
       sodipodi:nodetypes="cc" />
    <path
       style="fill:none;fill-opacity:1;stroke:#c53900;stroke-width:1;stroke-miterlimit:4;stroke-dasharray:none;stroke-opacity:1"
       d="m 445.35164,203.15008 c 0,0 7.96131,6.79455 7.96131,6.79455"
       id="path1157"
       inkscape:path-effect="#path-effect1159"
       inkscape:original-d="m 445.35164,203.15008 7.96131,6.79455"
       sodipodi:nodetypes="cc" />
    <path
       style="fill:none;fill-opacity:1;stroke:#c53900;stroke-width:1;stroke-miterlimit:4;stroke-dasharray:none;stroke-opacity:1"
       d="m 444.66533,72.543796 c 0,0 9.60845,7.618129 9.60845,7.618129"
       id="path1161"
       inkscape:path-effect="#path-effect1163"
       inkscape:original-d="m 444.66533,72.543796 9.60845,7.618129" />
    <text
       xml:space="preserve"
       style="font-size:12.7px;line-height:1.25;font-family:Arial;-inkscape-font-specification:Arial;fill:#c53900;fill-opacity:1;stroke-width:0.264583"
       x="87.715614"
       y="-460.19269"
       id="text1103-0"
       transform="rotate(90)"><tspan
         sodipodi:role="line"
         id="tspan1101-4"
         x="87.715614"
         y="-460.19269"
         style="font-size:12.7px;fill:#c53900;fill-opacity:1;stroke-width:0.264583">window.outerHeight</tspan></text>
    <path
       style="fill:#000000;stroke:#000000;stroke-width:1;stroke-miterlimit:4;stroke-dasharray:none"
       d="m -2.32944,48.14176 c 0,0 0,-114.534147 0,-114.534147"
       id="path1189"
       inkscape:path-effect="#path-effect1191"
       inkscape:original-d="M -2.32944,48.14176 V -66.392387"
       sodipodi:nodetypes="cc"
       transform="translate(360.28673,237.60288)" />
    <path
       style="fill:#000000;stroke:#000000;stroke-width:1;stroke-miterlimit:4;stroke-dasharray:none"
       d="m 322.23921,48.91824 c 0,0 0,-115.710297 0,-115.710297"
       id="path1193"
       inkscape:path-effect="#path-effect1195"
       inkscape:original-d="M 322.23921,48.91824 V -66.792057"
       sodipodi:nodetypes="cc" />
    <path
       style="fill:#000000;stroke:#000000;stroke-width:1;stroke-miterlimit:4;stroke-dasharray:none"
       d="m -7.5763943,-59.83941 c 0,0 335.6311243,0 335.6311243,0"
       id="path1197"
       inkscape:path-effect="#path-effect1199"
       inkscape:original-d="M -7.5763943,-59.83941 H 328.05473"
       sodipodi:nodetypes="cc" />
    <path
       style="fill:#000000;stroke:#000000;stroke-width:1;stroke-miterlimit:4;stroke-dasharray:none"
       d="m -7.961287,-54.768165 c 0,0 10.4320312,-9.471186 10.4320312,-9.471186"
       id="path1201"
       inkscape:path-effect="#path-effect1203"
       inkscape:original-d="M -7.961287,-54.768165 2.4707442,-64.239351" />
    <path
       style="fill:#000000;stroke:#000000;stroke-width:1;stroke-miterlimit:4;stroke-dasharray:none"
       d="m 317.07883,-55.454483 c 0,0 9.88298,-8.784868 9.88298,-8.784868"
       id="path1205"
       inkscape:path-effect="#path-effect1207"
       inkscape:original-d="m 317.07883,-55.454483 9.88298,-8.784868" />
    <text
       xml:space="preserve"
       style="font-size:11.2889px;line-height:1.25;font-family:Arial;-inkscape-font-specification:Arial;stroke-width:0.264583"
       x="112.5641"
       y="-68.238373"
       id="text1075-0-5"><tspan
         sodipodi:role="line"
         id="tspan1073-8-3"
         x="112.5641"
         y="-68.238373"
         style="font-size:11.2889px;stroke-width:0.264583">window.screen.width </tspan></text>
    <path
       style="fill:#000000;stroke:#000000;stroke-width:1;stroke-miterlimit:4;stroke-dasharray:none"
       d="m 335.63348,63.671359 c 0,0 157.96514,0 157.96514,0"
       id="path1233"
       inkscape:path-effect="#path-effect1235"
       inkscape:original-d="M 335.63348,63.671359 H 493.59862"
       sodipodi:nodetypes="cc" />
    <path
       style="fill:#000000;stroke:#000000;stroke-width:1;stroke-miterlimit:4;stroke-dasharray:none"
       d="m 336.60408,220.13208 c 0,0 157.20759,0 157.20759,0"
       id="path1237"
       inkscape:path-effect="#path-effect1239"
       inkscape:original-d="M 336.60408,220.13208 H 493.81167"
       sodipodi:nodetypes="cc" />
    <path
       style="fill:#000000;stroke:#000000;stroke-width:1;stroke-miterlimit:4;stroke-dasharray:none"
       d="m 487.62943,58.38159 c 0,0 0,167.20132 0,167.20132"
       id="path1241"
       inkscape:path-effect="#path-effect1243"
       inkscape:original-d="M 487.62943,58.38159 V 225.58291"
       sodipodi:nodetypes="cc" />
    <path
       style="fill:#000000;stroke:#000000;stroke-width:1;stroke-miterlimit:4;stroke-dasharray:none"
       d="m 483.35879,59.788961 c 0,0 8.44424,7.619209 8.44424,7.619209"
       id="path1245"
       inkscape:path-effect="#path-effect1247"
       inkscape:original-d="m 483.35879,59.788961 8.44424,7.619209"
       sodipodi:nodetypes="cc" />
    <path
       style="fill:#000000;stroke:#000000;stroke-width:1;stroke-miterlimit:4;stroke-dasharray:none"
       d="m 484.27457,216.83406 c 0,0 6.73127,6.8921 6.73127,6.8921"
       id="path1249"
       inkscape:path-effect="#path-effect1251"
       inkscape:original-d="m 484.27457,216.83406 6.73127,6.8921"
       sodipodi:nodetypes="cc" />
    <text
       xml:space="preserve"
       style="font-size:12.7px;line-height:1.25;font-family:Arial;-inkscape-font-specification:Arial;stroke-width:0.264583"
       x="83.597954"
       y="-501.50287"
       id="text1103-0-7"
       transform="rotate(90)"><tspan
         sodipodi:role="line"
         id="tspan1101-4-2"
         x="83.597954"
         y="-501.50287"
         style="font-size:12.7px;stroke-width:0.264583">window.screen.height</tspan></text>
    <path
       style="fill:#c53900;fill-opacity:1;stroke:#c53900;stroke-width:1;stroke-miterlimit:4;stroke-dasharray:none;stroke-opacity:1"
       d="m 88.80953,-29.786193 c 2.516498,-2.516499 5.032998,-5.032998 7.549496,-7.549497"
       id="path1279"
       inkscape:path-effect="#path-effect1281"
       inkscape:original-d="m 88.80953,-29.786193 c 2.516762,-2.516235 5.033261,-5.032735 7.549496,-7.549497" />
    <path
       style="fill:#c53900;fill-opacity:1;stroke:#c53900;stroke-width:1;stroke-miterlimit:4;stroke-dasharray:none;stroke-opacity:1"
       d="m 220.51393,-30.403879 c 2.12758,-2.127587 4.25517,-4.255172 6.38275,-6.382758"
       id="path1283"
       inkscape:path-effect="#path-effect1285"
       inkscape:original-d="m 220.51393,-30.403879 c 2.12785,-2.127322 4.25543,-4.254908 6.38275,-6.382758" />
    <path
       style="fill:#000000;stroke:#000000;stroke-width:1;stroke-miterlimit:4;stroke-dasharray:none"
       d="m -2.5999264,50.725524 c 0,0 0,-115.710297 0,-115.710297"
       id="path1193-0"
       inkscape:path-effect="#path-effect1308"
       inkscape:original-d="M -2.5999264,50.725524 V -64.984773"
       sodipodi:nodetypes="cc" />
  </g>
</svg>
