<?xml version="1.0" encoding="UTF-8" standalone="no"?>
<svg
   xmlns:dc="http://purl.org/dc/elements/1.1/"
   xmlns:cc="http://creativecommons.org/ns#"
   xmlns:rdf="http://www.w3.org/1999/02/22-rdf-syntax-ns#"
   xmlns:svg="http://www.w3.org/2000/svg"
   xmlns="http://www.w3.org/2000/svg"
   xmlns:sodipodi="http://sodipodi.sourceforge.net/DTD/sodipodi-0.dtd"
   xmlns:inkscape="http://www.inkscape.org/namespaces/inkscape"
   width="131.31586mm"
   height="136.60553mm"
   viewBox="0 0 131.31586 136.60553"
   version="1.1"
   id="svg8"
   inkscape:version="1.0.2-2 (e86c870879, 2021-01-15)"
   sodipodi:docname="baby.svg">
  <defs
     id="defs2">
    <inkscape:path-effect
       effect="bspline"
       id="path-effect873"
       is_visible="true"
       lpeversion="1"
       weight="33.333333"
       steps="2"
       helper_size="0"
       apply_no_weight="true"
       apply_with_weight="true"
       only_selected="false" />
  </defs>
  <sodipodi:namedview
     id="base"
     pagecolor="#ffffff"
     bordercolor="#666666"
     borderopacity="1.0"
     inkscape:pageopacity="0.0"
     inkscape:pageshadow="2"
     inkscape:zoom="0.39313511"
     inkscape:cx="216.63825"
     inkscape:cy="109.4368"
     inkscape:document-units="mm"
     inkscape:current-layer="layer1"
     inkscape:document-rotation="0"
     showgrid="false"
     fit-margin-top="0"
     fit-margin-left="0"
     fit-margin-right="0"
     fit-margin-bottom="0"
     inkscape:window-width="1346"
     inkscape:window-height="1040"
     inkscape:window-x="208"
     inkscape:window-y="0"
     inkscape:window-maximized="0" />
  <metadata
     id="metadata5">
    <rdf:RDF>
      <cc:Work
         rdf:about="">
        <dc:format>image/svg+xml</dc:format>
        <dc:type
           rdf:resource="http://purl.org/dc/dcmitype/StillImage" />
        <dc:title></dc:title>
      </cc:Work>
    </rdf:RDF>
  </metadata>
  <g
     inkscape:label="Layer 1"
     inkscape:groupmode="layer"
     id="layer1"
     transform="translate(-41.566716,-39.784907)">
    <g
       id="g843"
       transform="matrix(0.26458333,0,0,0.26458333,41.566716,52.036269)">
      <path
         d="M 257.77,148.882 C 257.77,88.844 208.925,40 148.887,40 88.846,40 39.999,88.844 39.999,148.882 c 0,60.04 48.847,108.886 108.888,108.886 60.038,0.001 108.883,-48.846 108.883,-108.886 z m -202.771,0 C 54.999,97.115 97.117,55 148.887,55 c 51.767,0 93.883,42.115 93.883,93.882 0,51.769 -42.116,93.886 -93.883,93.886 -51.77,0.001 -93.888,-42.117 -93.888,-93.886 z"
         id="path835" />
      <path
         d="m 372.339,181.313 c -0.397,-0.183 -0.811,-0.327 -1.235,-0.438 -15.632,-5.589 -32.459,-8.643 -49.988,-8.643 -12.874,0 -23.347,-10.474 -23.347,-23.347 C 297.769,66.789 230.979,0 148.884,0 66.789,0 0,66.789 0,148.884 c 0,1.268 0.016,2.531 0.047,3.791 0.98,84.188 34.406,163.434 94.125,223.152 56.706,56.707 131.024,89.684 210.457,93.708 0.287,0.033 0.574,0.054 0.863,0.054 0.046,0 0.092,-0.005 0.138,-0.006 3.888,0.185 7.784,0.324 11.695,0.37 1.26,0.031 2.523,0.047 3.791,0.047 C 403.211,470 470,403.211 470,321.116 470,257.011 429.275,202.24 372.339,181.313 Z M 15.046,152.452 c 0,-0.034 -10e-4,-0.069 -0.002,-0.104 C 15.015,151.197 15,150.042 15,148.884 15,75.06 75.06,15 148.884,15 c 73.824,0 133.884,60.06 133.884,133.884 0,18.847 13.671,34.551 31.615,37.743 7.273,69.405 -22.072,138.396 -77.484,181.24 -3.277,2.533 -3.879,7.244 -1.346,10.521 1.478,1.912 3.696,2.913 5.938,2.913 1.602,0 3.217,-0.511 4.582,-1.567 29.634,-22.912 52.979,-53.27 67.514,-87.792 13.839,-32.868 19.299,-68.794 15.955,-104.437 11.765,0.735 23.124,2.991 33.879,6.582 33.021,90.223 8.822,194.002 -60.733,260.327 -46.505,-2.819 -90.371,-16.272 -129.183,-37.921 16.268,-4.673 31.908,-11.215 46.68,-19.562 3.606,-2.038 4.877,-6.613 2.84,-10.22 -2.039,-3.606 -6.614,-4.878 -10.22,-2.84 -17.928,10.131 -37.227,17.418 -57.416,21.693 C 72.15,351.339 16.258,257.865 15.046,152.452 Z m 308.216,302.521 c 30.986,-33.018 52.688,-73.499 63.135,-118.08 10.545,-45.001 8.934,-91.345 -4.544,-135.073 43.38,22.175 73.147,67.324 73.147,119.296 0,73.106 -58.901,132.705 -131.738,133.857 z"
         id="path841" />
    </g>
    <text
       xml:space="preserve"
       style="font-size:25.4px;line-height:1.25;font-family:Arial;-inkscape-font-specification:Arial;stroke-width:0.264583"
       x="59.561264"
       y="97.417999"
       id="text869"><tspan
         sodipodi:role="line"
         id="tspan867"
         x="59.561264"
         y="97.417999"
         style="font-size:25.4px;stroke-width:0.264583">&lt;p&gt;</tspan></text>
    <path
       style="fill:none;stroke:#000000;stroke-width:1.5"
       d="m 81.185795,64.959282 c -1.934939,2.39764 -3.869838,4.795233 -3.680275,6.372659 0.189564,1.577427 2.502984,2.334546 3.827697,2.16633 1.324713,-0.168215 1.66121,-1.261833 1.577357,-1.913838 -0.08385,-0.652005 -0.588599,-0.862315 -1.093834,-1.072829"
       id="path871"
       inkscape:path-effect="#path-effect873"
       inkscape:original-d="m 81.185795,64.959282 c -1.934504,2.397991 -3.869403,4.795584 -5.804702,7.19278 2.313912,0.757547 4.627332,1.514666 6.940404,2.271404 0.336906,-1.093265 0.673406,-2.186882 1.009511,-3.280919 -0.504369,-0.209923 -1.009115,-0.420231 -1.514268,-0.630943" />
    <path
       fill="#000000"
       d="m 170.28089,39.78533 c -0.84867,0.01157 -1.74557,0.277749 -2.42065,0.659654 -1.20551,0.677013 -2.21814,2.769774 -2.79679,4.157555 a 6.1721999,4.62915 45 0 0 -5.23672,-0.32404 l 8.56393,8.571641 a 6.1721999,4.62915 45 0 0 -0.32789,-5.246368 c 1.38874,-0.569 3.48149,-1.5932 4.15658,-2.793885 0.72331,-1.264337 1.03192,-3.334918 0,-4.364903 -0.4822,-0.482203 -1.18621,-0.670263 -1.93846,-0.659654 z m -12.2383,5.161502 -3.14397,3.139143 9.68263,9.682638 3.14397,-3.134321 z m -5.88289,4.103549 c -1.30195,-0.02893 -3.1729,0.578644 -5.50675,2.922149 l -17.46347,17.465398 c -0.3414,0.337545 -0.56418,0.935474 -0.56418,1.562338 0,0.626867 0.22278,1.224796 0.56418,1.562338 l 10.91515,10.917081 c 0.33754,0.347186 0.93547,0.568999 1.57198,0.568999 0.62687,0 1.22479,-0.221813 1.56234,-0.568999 l 0.47256,-0.482204 -2.65212,-2.652117 1.23444,-1.234442 2.65212,2.652117 2.03488,-2.034897 -2.65211,-2.652117 1.23445,-1.234437 2.65211,2.652116 2.04454,-2.034898 -4.84131,-4.841318 1.23444,-1.234441 4.84131,4.841318 2.0349,-2.044539 -2.65212,-2.652116 1.23444,-1.234442 2.65212,2.652117 2.04455,-2.034898 -2.66177,-2.661761 1.23444,-1.234437 2.66177,2.661761 2.03489,-2.044543 -4.84132,-4.831677 1.23444,-1.234437 4.82203,4.812387 c 3.43328,-3.780473 2.22778,-6.220422 1.58162,-6.85693 l -8.72787,-8.727877 c -0.29897,-0.298965 -0.97405,-0.71366 -1.98668,-0.742592 z"
       id="path944"
       style="stroke-width:0.0964404" />
  </g>
</svg>
