<?xml version="1.0" encoding="UTF-8" standalone="no"?>
<svg
   xmlns:dc="http://purl.org/dc/elements/1.1/"
   xmlns:cc="http://creativecommons.org/ns#"
   xmlns:rdf="http://www.w3.org/1999/02/22-rdf-syntax-ns#"
   xmlns:svg="http://www.w3.org/2000/svg"
   xmlns="http://www.w3.org/2000/svg"
   xmlns:sodipodi="http://sodipodi.sourceforge.net/DTD/sodipodi-0.dtd"
   xmlns:inkscape="http://www.inkscape.org/namespaces/inkscape"
   width="119.69086mm"
   height="129.5988mm"
   viewBox="0 0 119.69086 129.5988"
   version="1.1"
   id="svg1143"
   inkscape:version="1.0.2-2 (e86c870879, 2021-01-15)"
   sodipodi:docname="domtom.svg">
  <defs
     id="defs1137">
    <inkscape:path-effect
       effect="bspline"
       id="path-effect1798"
       is_visible="true"
       lpeversion="1"
       weight="33.333333"
       steps="2"
       helper_size="0"
       apply_no_weight="true"
       apply_with_weight="true"
       only_selected="false" />
    <inkscape:path-effect
       effect="bspline"
       id="path-effect1775"
       is_visible="true"
       lpeversion="1"
       weight="33.333333"
       steps="2"
       helper_size="0"
       apply_no_weight="true"
       apply_with_weight="true"
       only_selected="false" />
    <inkscape:path-effect
       effect="bspline"
       id="path-effect1769"
       is_visible="true"
       lpeversion="1"
       weight="33.333333"
       steps="2"
       helper_size="0"
       apply_no_weight="true"
       apply_with_weight="true"
       only_selected="false" />
  </defs>
  <sodipodi:namedview
     id="base"
     pagecolor="#ffffff"
     bordercolor="#666666"
     borderopacity="1.0"
     inkscape:pageopacity="0.0"
     inkscape:pageshadow="2"
     inkscape:zoom="0.55597701"
     inkscape:cx="293.55811"
     inkscape:cy="130.82304"
     inkscape:document-units="mm"
     inkscape:current-layer="layer1"
     inkscape:document-rotation="0"
     showgrid="false"
     fit-margin-top="0"
     fit-margin-left="0"
     fit-margin-right="0"
     fit-margin-bottom="0"
     inkscape:window-width="1346"
     inkscape:window-height="1040"
     inkscape:window-x="104"
     inkscape:window-y="0"
     inkscape:window-maximized="0" />
  <metadata
     id="metadata1140">
    <rdf:RDF>
      <cc:Work
         rdf:about="">
        <dc:format>image/svg+xml</dc:format>
        <dc:type
           rdf:resource="http://purl.org/dc/dcmitype/StillImage" />
        <dc:title></dc:title>
      </cc:Work>
    </rdf:RDF>
  </metadata>
  <g
     inkscape:label="Layer 1"
     inkscape:groupmode="layer"
     id="layer1"
     transform="translate(-51.846417,-34.542429)">
    <text
       xml:space="preserve"
       style="font-size:7.05556px;line-height:1.25;font-family:Arial;-inkscape-font-specification:Arial;stroke-width:0.264583"
       x="93.274239"
       y="47.588898"
       id="text1708"><tspan
         sodipodi:role="line"
         id="tspan1706"
         x="93.274239"
         y="47.588898"
         style="stroke-width:0.264583">DOM-TOM</tspan></text>
    <g
       id="g2844"
       stroke="#ffffff"
       transform="matrix(0.26458333,0,0,0.26458333,35.58132,-36.932194)">
      <path
         id="path2830"
         stroke-width="3"
         fill="#e5b380"
         d="m 139.65,687.44 c 13.64,8.5251 28.465,15.134 44.208,18.55 26.359,6.8282 53.551,-0.38181 80.3,1.5058 13.819,-1.4779 26.241,5.3691 39.689,6.1935 14.694,0.3496 29.575,-1.2672 43.997,2.464 16.997,3.257 35.34,7.0121 51.78,-0.60546 14.888,-5.4115 27.406,-16.018 38.159,-27.338 7.0398,-12.22 -7.3407,-22.319 -17.257,-26.485 -20.264,-11.809 -43.043,-18.259 -64.677,-27.023 -21.374,-7.9775 -43.842,-12.543 -64.929,-21.278 -16.514,-6.2532 -34.585,-3.5371 -51.513,-0.75466 -26.744,5.5535 -49.839,21.176 -71.507,37.075 -13.252,6.3779 -29.947,14.227 -32.014,30.554 -0.0831,2.8232 1.24,5.7272 3.7651,7.1413 z" />
      <path
         id="path2836"
         stroke-width="4.0942"
         transform="matrix(1.4269,0,0,1.197,-60.487,-118.63)"
         fill="#f3f98f"
         d="m 266.68,671.03 c -1.2084,1.6228 -7.9105,-2.9428 -9.842,-2.3402 -1.9315,0.60254 -4.8489,8.169 -6.7657,7.5211 -1.9168,-0.64783 0.35426,-8.4327 -0.81565,-10.083 -1.1699,-1.6508 -9.2676,-2.0872 -9.2437,-4.1104 0.0238,-2.0231 8.1295,-2.2689 9.3379,-3.8917 1.2084,-1.6228 -0.87873,-9.459 1.0528,-10.062 1.9315,-0.60254 4.67,7.0305 6.5868,7.6783 1.9168,0.64784 8.7245,-3.7587 9.8944,-2.1079 1.1699,1.6508 -5.2432,6.614 -5.2671,8.6371 -0.0238,2.0232 6.2708,7.136 5.0623,8.7587 z" />
      <path
         id="path2838"
         stroke-width="3.75"
         fill="#9c6434"
         d="m 233.87,644.75 c -16.974,-88.192 10.812,-164.61 79.888,-222.81 8.3506,-0.6941 7.2658,7.6222 1.203,12.283 -55.149,60.433 -66.026,137.2 -58.867,216.09 -6.5822,-5.3196 -13.304,-10.051 -22.223,-5.5558 z" />
      <path
         id="path2854-1"
         stroke-width="3.75"
         fill="#026333"
         d="m 320.75,428.03 c 13.42,12.895 23.644,27.857 33.441,43.499 2.0715,-3.4692 4.143,-6.9384 6.2145,-10.408 l 3.3195,13.159 c 20.373,8.2433 40.746,16.487 61.12,24.73 -12.023,-18.944 -24.045,-37.888 -36.068,-56.833 -5.5428,0.41601 -11.086,0.83201 -16.628,1.248 0.0801,-3.0896 1.1959,-7.9138 1.2759,-11.003 -15.402,-7.5037 -31.348,-13.708 -48.572,-10.261 -1.4153,0.46189 -3.6934,0.27803 -4.6035,1.118 0.1672,1.5834 0.33441,3.1669 0.50162,4.7503 z" />
      <path
         id="path2854-4"
         stroke-width="3.75"
         fill="#026333"
         d="m 312.71,428.49 c -16.092,9.3507 -29.567,21.467 -42.789,34.345 -1.1913,-3.861 -2.3825,-7.722 -3.5738,-11.583 -2.1136,3.9997 -4.2271,7.9994 -6.3407,11.999 -21.746,3.1855 -43.491,6.371 -65.237,9.5565 16.166,-15.559 32.332,-31.118 48.498,-46.678 5.2867,1.7165 10.573,3.433 15.86,5.1494 0.65371,-3.0207 0.71178,-7.972 1.3655,-10.993 16.741,-3.6439 33.702,-5.8961 49.621,1.5309 1.2657,0.78386 3.5226,1.1446 4.208,2.1762 -0.53734,1.4988 -1.0747,2.9977 -1.612,4.4965 z" />
      <path
         id="path2854"
         stroke-width="3.9928"
         fill="#026333"
         d="m 315.14,429.34 c -4.4623,19.307 -12.56,36.821 -21.511,54.316 h 12.907 l -10.218,10.218 c 3.5852,23.125 7.1704,46.249 10.756,69.374 10.756,-21.332 21.511,-42.664 32.267,-63.996 -3.4059,-4.84 -6.8119,-9.68 -10.218,-14.52 2.8682,-1.6133 7.8874,-3.2267 10.756,-4.84 -1.5477,-18.176 -4.5806,-36.14 -17.134,-50.005 -1.1948,-1.0417 -2.2703,-3.2247 -3.535,-3.5982 l -4.0688,3.0516 z" />
      <path
         id="path2854-9"
         stroke-width="3.3861"
         fill="#026333"
         d="m 312.88,425.14 c -15.78,-5.7803 -31.97,-8.1472 -48.544,-9.8999 1.9942,-3.0553 3.9883,-6.1106 5.9825,-9.1658 -3.9975,0.84005 -7.995,1.6801 -11.992,2.5202 -14.76,-13.265 -29.521,-26.529 -44.281,-39.794 20.134,2.2495 40.269,4.499 60.403,6.7486 1.8585,4.6622 3.717,9.3244 5.5754,13.987 2.4752,-1.289 5.9474,-4.1057 8.4226,-5.3948 12.191,9.524 23.542,20.004 27.569,35.346 0.18594,1.3314 1.2377,3.107 0.91673,4.1782 -1.351,0.49167 -2.7021,0.98335 -4.0531,1.475 z" />
      <path
         id="path2854-1-4"
         stroke-width="3.1733"
         fill="#026333"
         d="m 319.32,423.28 c 15.052,-4.6352 30.32,-6.0558 45.917,-6.8826 -1.7163,-2.9573 -3.4327,-5.9145 -5.149,-8.8718 3.6999,0.98237 7.3999,1.9648 11.1,2.9472 14.465,-11.69 28.93,-23.38 43.395,-35.069 l -56.862,3.3513 -5.9044,12.816 c -2.2532,-1.3279 -5.3646,-4.1344 -7.6178,-5.4622 -11.876,8.3151 -23.014,17.566 -27.537,31.727 -0.23938,1.2369 -1.3109,2.847 -1.063,3.8653 1.2403,0.52647 2.4806,1.0529 3.7208,1.5794 z" />
    </g>
    <g
       id="g1765"
       transform="matrix(0.44389716,0,0,0.44389716,136.0255,104.60715)">
      <rect
         width="80"
         height="40"
         fill="#078930"
         id="rect1745"
         x="0"
         y="0" />
      <rect
         width="80"
         height="30"
         y="5"
         fill="#ffffff"
         id="rect1747"
         x="0" />
      <rect
         width="80"
         height="26"
         y="7"
         fill="#da121a"
         id="rect1749"
         x="0" />
      <path
         fill="#fcdd09"
         transform="matrix(7.186225,0,0,7.186225,14.372449,20.686225)"
         d="M 0,-1 0.58779,0.80902 -0.95106,-0.30902 H 0.95106 L -0.58779,0.80902 Z"
         id="path1751" />
    </g>
    <path
       style="fill:#3c8409;stroke:#3c8409;stroke-width:1"
       d="m 136.0255,104.60715 c 0,0 0,37.56593 0,37.56593"
       id="path1767"
       inkscape:path-effect="#path-effect1769"
       inkscape:original-d="m 136.0255,104.60715 v 37.56593" />
    <circle
       id="path1771"
       style="fill:#3c8409;stroke:none;stroke-width:0.264583"
       cx="136.0255"
       cy="142.17307"
       r="1.5" />
    <path
       style="fill:#3c8409;stroke:#bc0009;stroke-width:2;stroke-miterlimit:4;stroke-dasharray:none;stroke-opacity:1"
       d="m 52.823676,35.215785 c 0,0 116.592794,128.014135 116.592794,128.014135"
       id="path1773"
       inkscape:path-effect="#path-effect1775"
       inkscape:original-d="M 52.823676,35.215785 169.41647,163.22992" />
    <path
       style="fill:#3c8409;stroke:#bc0009;stroke-width:2;stroke-miterlimit:4;stroke-dasharray:none;stroke-opacity:1"
       d="m 169.17853,35.453733 c 0,0 -116.592795,128.014137 -116.592795,128.014137"
       id="path1773-8"
       inkscape:path-effect="#path-effect1798"
       inkscape:original-d="M 169.17853,35.453733 52.585735,163.46787" />
  </g>
</svg>
